<svg width="1814" height="504" viewBox="0 0 1814 504" fill="none" xmlns="http://www.w3.org/2000/svg">
<g clip-path="url(#clip0_1364_171)">
<path d="M207.826 92.7756L86.8517 167.387L87.2447 308.113L212.51 370.309L329.585 299.618L329.214 166.71L207.826 92.7756Z" fill="#FEFEFE"/>
<path fill-rule="evenodd" clip-rule="evenodd" d="M128.15 148.2C131.821 144.038 185.504 115.097 196.287 108.063C202.033 104.315 199.657 97.7817 210.728 99.1326C214.945 99.646 220.066 102.647 216.914 107.513C214.464 111.293 209.446 109.562 204.684 111.416C189.843 117.186 157.607 139.125 142.325 148.16C145.894 154.158 151.323 152.129 157.862 154.374C165.196 156.896 162.78 164.251 154.875 164.997C143.13 166.104 146.212 160.455 141.427 156.762C138.424 154.44 129.743 151.603 128.15 148.2V148.2ZM80.7621 159.667L94.0185 167.328C96.8867 165.056 111.124 157.314 114.896 155.836C120.401 157.04 124.015 160.863 129.134 163.08C135.78 165.958 142.716 162.605 143.252 171.312C141.113 175.344 137.872 176.567 132.381 175.84C123.173 174.619 122.778 161.096 112.737 165.034C109.98 166.116 103.036 169.81 101.369 171.577L131.866 189.205L182.141 159.125C173.508 151.936 163.317 155.37 162.389 149.11C163.574 140.798 176.38 140.474 180.153 146.889C185.221 155.511 189.899 152.523 196.167 159.085C194.677 161.418 195.994 159.878 193.604 161.59L138.671 193.136L187.759 221.51C193.267 218.697 217.835 205.864 220.032 202.31C217.25 200.066 192.889 185.964 191.013 185.862C189.291 185.772 185.347 187.849 183.813 188.976C179.649 192.033 182.074 192.991 178.6 195.843C169.777 203.078 151.586 189.379 171.993 185.946C176.251 185.23 178.327 184.007 181.781 181.919C194.409 174.285 190.502 177.366 217.394 192.096L234.305 203.524L196.472 226.544L209.343 233.982L260.282 204.34C256.903 200.809 238.577 191.04 232.774 187.691C227.769 184.801 206.155 173.301 203.657 170.138C205.777 166.198 216.22 161.793 220.437 159.291C226.218 155.862 232.536 151.752 238.44 149.338C235.176 141.697 224.961 144.379 218.886 140.289L218.782 134.438C226.455 130.643 232.53 129.137 237.023 136.897C240.194 142.377 248.13 143.537 252.364 147.853C250.914 150.906 238.731 157.062 235.277 159.05C231.046 161.485 220.061 166.983 217.6 170.099C218.815 171.701 263.379 198.289 267.753 199.991L279.638 193.076C277.96 190.157 252.189 176.535 246.64 175.661C229.026 172.887 240.375 160.746 251.367 164.822C256.488 166.72 254.186 170.125 261.128 174.196L286.378 189.154L298.461 182.121C296.221 179.309 270.779 165.815 268.004 165.133C260.84 163.372 262.539 166.254 256.373 161.122C256.184 154.433 260.808 152.384 267.845 153.434C275.981 154.648 272.094 158.571 279.3 162.896L305.601 177.728L317.257 171.183C309.632 165.273 269.45 144.283 257.105 136.85C253.414 134.628 229.425 120.56 227.916 120.45C226.123 120.32 202.004 134.459 198.497 136.928C204.102 146.416 214.81 138.398 218.246 147.948C216.381 155.747 204.618 156.372 200.363 149.725C197.682 145.538 198.112 145.853 192.88 143.144C189.326 141.306 185.665 139.896 184.263 136.968C187.196 134.41 197.474 128.887 201.054 126.894C235.056 107.961 219.717 107.267 254.103 126.771L324.388 167.111L337.601 159.341L209.865 84.9516L80.7621 159.667Z" fill="#F9C309"/>
<path fill-rule="evenodd" clip-rule="evenodd" d="M305.864 310.959C292.186 318.668 278.016 327.255 263.968 335.294C256.674 339.467 249.887 343.139 242.947 347.43C239.137 349.783 235.674 351.221 233.404 353.958C229.974 358.092 229.939 361.576 222.57 360.295C220.466 356.513 220.439 353.291 223.19 348.807C226.905 342.753 228.212 345.53 235.157 343.629L298.741 306.958C299.02 304.214 299.426 300.414 298.933 297.708C297.959 292.343 296.473 295.206 295.925 290.603C295.319 285.509 299.866 279.074 303.904 278.526C313.12 277.275 307.713 288.226 306.738 291.555C305.349 296.299 306.75 305.052 305.864 310.959ZM278.35 305.286C277.92 304.649 277.766 304.905 277.329 303.267C276.412 299.843 277.391 298.575 278.629 295.739C280.869 290.612 280.113 289.682 279.947 283.668C279.607 271.433 281.301 273.171 290.338 268.254C297.202 264.52 318.948 250.164 324.695 249.201C324.908 260.405 323.895 274.983 324.872 285.621C325.485 292.283 331.022 290.715 326.808 299.642C322.008 309.808 310.765 307.605 315.94 295.863C319.251 288.352 317.959 270.077 317.369 261.546C314.793 261.859 290.425 275.764 288.699 277.76C283.133 284.196 290.917 290.082 290.553 295.584C290.172 301.338 284.65 308.396 278.35 305.286ZM265.896 251.669C259.882 252.671 260.314 250.705 255.382 253.407C251.668 255.444 231.746 266.786 231.154 268.307L231.074 323.771C234.016 323.173 258.748 309.022 261.115 306.159C264.147 295.594 257.616 295.885 258.399 288.889C259.7 277.277 274.158 274.746 271.278 286.294C270.613 288.964 269.332 289.931 268.824 292.931C265.116 314.833 279.347 305.449 246.474 323.87C241.819 326.481 228.105 335.718 224.153 335.769L223.694 264.064C228.416 259.749 247.394 250.064 254.716 245.734C261.604 241.662 261.622 233.921 268.179 235.637C271.71 236.562 271.948 240.332 270.918 243.796C269.829 247.452 267.711 248.649 265.896 251.669ZM324.39 167.112L324.087 234.472L298.628 248.679L298.459 182.12L286.376 189.153C285.102 200.227 288.939 251.434 286.558 256.014C283.315 260.684 256.304 273.764 249.882 278.912C248.117 294.936 255.222 288.481 252.362 298.473C250.474 305.059 245.242 308.19 240.037 304.594C238.14 296.591 241.95 297.332 242.569 290.836C243.862 277.29 238.894 276.124 248.044 271.195L261.414 263.473C265.691 261.026 276.861 255.114 279.91 252.479L279.636 193.075L267.751 199.99L267.834 223.758C267.174 225.803 247.724 236.267 244.215 238.265C240.387 240.447 235.083 243.209 232.841 245.99C230.534 248.85 227.655 255.18 222.613 251.508C218.192 248.141 221.252 241.408 224.274 238.399C229.271 233.424 230.765 238.262 237.817 233.871L260.311 219.714L260.276 204.339L209.338 233.981L209.429 382.044L338.012 308.392C338.012 308.392 337.946 274.556 337.886 263.26C337.8 247.685 338.255 228.613 337.746 213.106L337.595 159.341L324.39 167.112Z" fill="#F76200"/>
<path fill-rule="evenodd" clip-rule="evenodd" d="M120.396 307.343C126.961 311.111 165.067 333.971 169.296 334.387L169.21 301.116C160.697 292.878 159.376 297.888 153.526 294.933C149.677 292.992 144.392 284.866 149.218 279.824C156.098 276.616 158.091 284.794 161.711 287.724C165.292 290.623 172.123 293.414 176.125 296.238L176.465 346.539C170.001 346.296 123.942 315.945 113.228 311.529C111.318 295.815 115.088 277.137 111.231 268.008C105.307 253.989 118.915 255.044 122.444 264.802C125.017 271.909 121.519 271.819 120.413 276.283C119.662 279.317 119.968 303.292 120.396 307.343ZM101.57 292.053C102.106 295.647 103.625 296.323 104.262 299.538C105.984 308.21 97.9116 307.508 94.2701 303.311C87.511 295.525 92.5936 293.18 93.8672 287.965C95.2771 282.197 92.7758 240.57 94.3415 228.094C97.4626 228.692 135.564 250.734 138.851 253.379L139.333 296.167C147.823 303.257 150.485 299.008 155.396 302.134C159.831 304.959 161.898 311.479 159.302 317.08C150.32 318.827 150.694 312 145.372 308.246C127.449 295.596 131.846 312.571 131.318 256.813L101.383 240.268L101.57 292.053ZM178.673 284.309C170.026 287.23 169.71 279.869 164.345 275.954C160.354 273.042 151.58 270.631 150.617 265.772L150.357 217.595C156.947 217.627 160.752 225.085 169.5 225.228C177.159 225.351 180.924 233.303 178.789 241.134C166.274 244.203 173.156 234.362 157.62 229.468L158.265 263.896C166.691 270.824 168.079 266.587 173.755 269.392C178.866 271.917 180.267 278.637 178.673 284.309ZM80.2096 308.692L209.435 382.045L209.343 233.982L196.471 226.544C196.355 232.63 194.427 342.47 195.609 347.199C197.056 352.979 200.389 354.038 196.686 360.352C190.331 361.324 187.059 357.689 185.399 352.538C183.046 345.236 187.984 346.89 188.092 338.347L187.759 221.51L138.671 193.136L138.8 238.51L94.1988 213.461L94.0198 167.329L80.7634 159.667L80.4865 234.18L80.2096 308.692Z" fill="#FD8C0A"/>
<path fill-rule="evenodd" clip-rule="evenodd" d="M131.885 226.751L131.865 189.205L101.368 171.577L101.449 209.401L131.885 226.751Z" fill="#FD8C0A"/>
<path fill-rule="evenodd" clip-rule="evenodd" d="M305.601 177.727L305.77 236.598L317.167 230.492L317.258 171.183L305.601 177.727Z" fill="#F76200"/>
<path d="M418.375 63C327.833 52.3731 279.517 38.682 208.94 0V85.8656L335.755 160.112V305.631L208.94 377.894L81.5002 305.5L208.94 434.146V504C321.507 434.603 426.452 347.227 418.375 63Z" fill="#07203D"/>
<path d="M0.374711 63C93.051 51.948 145.212 33.4231 208.971 0V85.8656L81.7353 160.112V305.631L208.971 434.146V504C53.1372 408.916 -5.30695 301.817 0.374711 63Z" fill="#0D3B6F"/>
<path d="M1808.29 294.107C1811.54 285.497 1813.15 275.717 1813.15 264.806V157.846C1813.15 156.947 1812.86 156.106 1812.3 155.353C1811.78 154.647 1810.79 154.038 1809.42 153.565C1808.05 153.091 1806.21 152.763 1803.94 152.482C1801.68 152.202 1798.8 152.057 1795.32 152.057C1791.83 152.057 1788.9 152.202 1786.53 152.482C1784.18 152.763 1782.29 153.091 1780.92 153.565C1779.55 154.038 1778.56 154.647 1778.04 155.353C1777.48 156.106 1777.2 156.947 1777.2 157.846V265.27C1777.2 271.532 1776.34 277.128 1774.65 282.066C1772.95 286.956 1770.5 291.092 1767.38 294.484C1764.22 297.818 1760.4 300.36 1755.87 302.099C1751.38 303.839 1746.24 304.737 1740.53 304.737C1734.92 304.737 1729.82 303.887 1725.24 302.196C1720.67 300.505 1716.75 297.915 1713.49 294.532C1710.19 291.14 1707.69 286.82 1705.94 281.641C1704.2 276.422 1703.31 270.305 1703.31 263.202V157.846C1703.31 156.947 1703.03 156.106 1702.4 155.353C1701.79 154.647 1700.81 154.038 1699.44 153.565C1698.07 153.091 1696.23 152.763 1693.91 152.482C1691.64 152.202 1688.72 152.057 1685.27 152.057C1681.69 152.057 1678.71 152.202 1676.44 152.482C1674.14 152.763 1672.25 153.091 1670.83 153.565C1669.41 154.038 1668.43 154.647 1667.9 155.353C1667.34 156.106 1667.06 156.947 1667.06 157.846V266.304C1667.06 277.688 1668.71 287.613 1671.96 296.127C1675.22 304.641 1679.94 311.744 1686.12 317.436C1692.3 323.128 1699.85 327.361 1708.82 330.182C1717.74 332.956 1727.84 334.367 1739.07 334.367C1751.05 334.367 1761.63 332.821 1770.88 329.67C1780.08 326.559 1787.81 321.997 1794.08 316.025C1800.37 310.053 1805.08 302.756 1808.29 294.107Z" fill="#0D3B6F"/>
<path d="M1637.57 176.894C1637.8 175.009 1637.9 172.709 1637.9 169.936C1637.9 167.201 1637.8 164.853 1637.57 162.93C1637.34 160.997 1636.96 159.441 1636.43 158.32C1635.92 157.141 1635.35 156.339 1634.74 155.827C1634.08 155.305 1633.32 155.073 1632.52 155.073H1548.21C1545.13 155.073 1542.58 155.962 1540.51 157.75C1538.43 159.537 1537.4 162.456 1537.4 166.496V328.211C1537.4 329.197 1537.68 330.086 1538.29 330.84C1538.91 331.546 1539.9 332.203 1541.27 332.676C1542.63 333.198 1544.52 333.575 1546.88 333.855C1549.24 334.135 1552.16 334.28 1555.66 334.28C1559.25 334.28 1562.21 334.135 1564.53 333.855C1566.79 333.575 1568.68 333.198 1570.1 332.676C1571.56 332.164 1572.55 331.546 1573.07 330.84C1573.63 330.086 1573.92 329.197 1573.92 328.211V261.743H1628.88C1629.74 261.743 1630.49 261.511 1631.1 260.999C1631.76 260.477 1632.33 259.627 1632.85 258.457C1633.37 257.23 1633.7 255.722 1633.93 253.896C1634.18 252.06 1634.31 249.75 1634.31 247.025C1634.31 244.251 1634.18 241.942 1633.93 240.115C1633.7 238.279 1633.37 236.82 1632.85 235.689C1632.33 234.607 1631.76 233.805 1631.1 233.389C1630.49 232.916 1629.74 232.684 1628.88 232.684H1573.92V184.702H1632.52C1633.32 184.702 1634.08 184.422 1634.74 183.852C1635.35 183.34 1635.92 182.489 1636.43 181.407C1636.96 180.286 1637.34 178.778 1637.57 176.894Z" fill="#0D3B6F"/>
<path fill-rule="evenodd" clip-rule="evenodd" d="M1512.35 319.775C1513.43 323.07 1514.14 325.699 1514.42 327.631C1514.7 329.555 1514.33 331.014 1513.34 332.009C1512.3 332.947 1510.51 333.555 1507.91 333.797C1505.36 334.029 1501.77 334.126 1497.29 334.126C1492.57 334.126 1488.9 334.077 1486.3 333.932C1483.65 333.797 1481.67 333.507 1480.26 333.092C1478.89 332.666 1477.94 332.096 1477.38 331.342C1476.82 330.637 1476.34 329.651 1476.01 328.482L1464.26 292.638H1396.79L1385.52 327.487C1385.14 328.81 1384.66 329.893 1384.05 330.734C1383.48 331.632 1382.49 332.29 1381.17 332.802C1379.86 333.324 1377.97 333.652 1375.51 333.836C1373.06 334.029 1369.85 334.126 1365.89 334.126C1361.64 334.126 1358.33 333.981 1355.93 333.7C1353.53 333.42 1351.87 332.753 1350.98 331.719C1350.04 330.637 1349.7 329.139 1349.99 327.206C1350.27 325.283 1350.98 322.742 1352.06 319.494L1407.17 161.219C1407.69 159.663 1408.35 158.397 1409.1 157.46C1409.81 156.464 1410.99 155.759 1412.59 155.247C1414.25 154.725 1416.46 154.396 1419.34 154.261C1422.17 154.116 1425.95 154.068 1430.66 154.068C1436.09 154.068 1440.44 154.116 1443.64 154.261C1446.9 154.396 1449.4 154.725 1451.2 155.247C1452.99 155.759 1454.26 156.513 1455.06 157.498C1455.82 158.532 1456.53 159.905 1457.04 161.644L1512.35 319.775ZM1430.1 188.829H1430.25L1455.39 264.7H1405.19L1430.1 188.829Z" fill="#0D3B6F"/>
<path d="M1336.4 301.673C1339.89 294.57 1341.63 286.395 1341.63 276.982C1341.63 269.831 1340.54 263.627 1338.32 258.36C1336.11 253.045 1333.19 248.483 1329.6 244.579C1325.96 240.675 1321.86 237.331 1317.24 234.509C1312.66 231.687 1307.94 229.194 1303.13 226.981C1298.32 224.816 1293.6 222.7 1289.02 220.728C1284.4 218.757 1280.25 216.641 1276.61 214.428C1272.98 212.166 1270.06 209.586 1267.89 206.668C1265.71 203.797 1264.63 200.367 1264.63 196.414C1264.63 193.776 1265.1 191.234 1266.09 188.838C1267.03 186.441 1268.54 184.421 1270.52 182.72C1272.51 181.029 1274.96 179.667 1277.89 178.729C1280.86 177.734 1284.31 177.27 1288.26 177.27C1293.36 177.27 1297.99 177.879 1302.23 179.145C1306.48 180.372 1310.21 181.735 1313.46 183.242C1316.67 184.798 1319.41 186.209 1321.62 187.475C1323.84 188.741 1325.45 189.398 1326.44 189.398C1327.48 189.398 1328.28 189.118 1328.89 188.557C1329.45 188.035 1329.93 187.146 1330.26 185.967C1330.59 184.75 1330.83 183.242 1330.97 181.406C1331.11 179.57 1331.16 177.318 1331.16 174.68C1331.16 172.283 1331.11 170.302 1331.02 168.708C1330.92 167.065 1330.78 165.741 1330.54 164.707C1330.31 163.624 1330.03 162.784 1329.7 162.127C1329.37 161.508 1328.75 160.716 1327.85 159.817C1326.91 158.879 1325.02 157.749 1322.19 156.338C1319.31 154.975 1316.06 153.748 1312.37 152.617C1308.7 151.535 1304.73 150.646 1300.49 150.037C1296.24 149.38 1292 149.042 1287.8 149.042C1279.59 149.042 1271.8 150.085 1264.48 152.202C1257.17 154.318 1250.84 157.517 1245.41 161.788C1240.03 166.069 1235.74 171.433 1232.58 177.879C1229.42 184.373 1227.82 191.891 1227.82 200.405C1227.82 207.837 1228.9 214.234 1231.12 219.549C1233.34 224.913 1236.21 229.523 1239.8 233.427C1243.34 237.331 1247.39 240.675 1251.94 243.448C1256.42 246.27 1261.09 248.764 1265.9 250.977C1270.72 253.18 1275.39 255.258 1279.87 257.229C1284.4 259.201 1288.46 261.317 1292 263.578C1295.58 265.84 1298.46 268.372 1300.67 271.29C1302.89 274.16 1303.98 277.639 1303.98 281.688C1303.98 285.167 1303.32 288.318 1302.05 291.14C1300.72 293.962 1298.88 296.32 1296.43 298.243C1293.97 300.176 1291.01 301.635 1287.47 302.717C1283.97 303.751 1280.01 304.263 1275.57 304.263C1268.83 304.263 1262.88 303.51 1257.78 301.963C1252.65 300.456 1248.2 298.765 1244.52 296.928C1240.84 295.092 1237.81 293.401 1235.46 291.894C1233.1 290.338 1231.26 289.594 1229.98 289.594C1229.04 289.594 1228.24 289.825 1227.53 290.338C1226.87 290.859 1226.31 291.71 1225.88 292.879C1225.45 294.107 1225.17 295.653 1224.98 297.586C1224.79 299.518 1224.7 301.867 1224.7 304.737C1224.7 308.97 1224.94 312.168 1225.45 314.42C1225.98 316.682 1226.82 318.421 1228 319.648C1229.23 320.818 1231.16 322.229 1233.9 323.833C1236.64 325.427 1240.03 326.935 1244.1 328.346C1248.15 329.805 1252.83 331.032 1258.11 332.066C1263.45 333.101 1269.16 333.613 1275.34 333.613C1284.49 333.613 1293.08 332.443 1301.1 330.037C1309.13 327.64 1316.11 324.065 1322.14 319.358C1328.14 314.613 1332.86 308.738 1336.4 301.673Z" fill="#0D3B6F"/>
<path d="M1210.07 331.263C1210.45 330.741 1210.64 330.084 1210.64 329.33C1210.64 328.528 1210.4 327.639 1209.88 326.653C1209.36 325.658 1208.51 324.44 1207.33 322.836L1156.85 257.363L1201.67 212.397C1203.09 210.938 1204.03 209.672 1204.64 208.541C1205.26 207.459 1205.54 206.328 1205.54 205.255C1205.54 204.405 1205.35 203.748 1204.93 203.226C1204.5 202.762 1203.8 202.337 1202.85 202.008C1201.91 201.68 1200.64 201.438 1199.08 201.303C1197.51 201.158 1195.59 201.11 1193.27 201.11C1191.06 201.11 1189.17 201.158 1187.61 201.303C1186.06 201.438 1184.69 201.718 1183.55 202.144C1182.42 202.569 1181.43 203.091 1180.58 203.651C1179.77 204.26 1178.98 205.014 1178.22 205.961L1131.37 257.508V145.416C1131.37 144.672 1131.18 144.005 1130.8 143.493C1130.42 142.933 1129.86 142.459 1129 142.082C1128.16 141.754 1127.03 141.474 1125.51 141.28C1124.05 141.097 1122.17 141 1119.85 141C1117.58 141 1115.75 141.097 1114.29 141.28C1112.78 141.474 1111.59 141.754 1110.75 142.082C1109.85 142.459 1109.24 142.933 1108.91 143.493C1108.58 144.005 1108.43 144.672 1108.43 145.416V329.475C1108.43 330.229 1108.58 330.838 1108.91 331.35C1109.24 331.824 1109.85 332.297 1110.75 332.674C1111.59 333.003 1112.78 333.283 1114.29 333.467C1115.75 333.66 1117.58 333.756 1119.85 333.756C1122.17 333.756 1124.05 333.66 1125.51 333.467C1127.03 333.283 1128.16 333.003 1129 332.674C1129.86 332.297 1130.42 331.824 1130.8 331.35C1131.18 330.838 1131.37 330.229 1131.37 329.475V260.659L1183.84 329.33C1184.4 330.181 1185.02 330.886 1185.73 331.495C1186.39 332.056 1187.28 332.529 1188.41 332.858C1189.5 333.186 1190.86 333.428 1192.47 333.563C1194.07 333.708 1196.15 333.756 1198.6 333.756C1201.01 333.756 1202.99 333.66 1204.55 333.467C1206.1 333.283 1207.33 333.003 1208.23 332.674C1209.08 332.297 1209.69 331.824 1210.07 331.263Z" fill="#0D3B6F"/>
<path d="M1078.05 313.297C1078.15 312.166 1078.19 310.803 1078.19 309.257C1078.19 307.421 1078.15 305.817 1078 304.503C1077.86 303.14 1077.62 302.058 1077.3 301.159C1076.97 300.318 1076.59 299.709 1076.11 299.332C1075.65 298.956 1075.08 298.762 1074.46 298.762C1073.33 298.762 1071.82 299.564 1069.84 301.207C1067.85 302.811 1065.4 304.599 1062.48 306.571C1059.55 308.59 1056.15 310.427 1052.2 312.079C1048.23 313.722 1043.61 314.572 1038.32 314.572C1032.8 314.572 1027.89 313.577 1023.6 311.606C1019.3 309.634 1015.67 306.619 1012.75 302.618C1009.77 298.579 1007.55 293.544 1006 287.571C1004.49 281.551 1003.73 274.544 1003.73 266.591C1003.73 250.646 1006.66 238.469 1012.51 230.09C1018.36 221.673 1026.81 217.489 1037.8 217.489C1043.13 217.489 1047.76 218.243 1051.67 219.789C1055.59 221.296 1058.94 222.988 1061.73 224.824C1064.51 226.66 1066.78 228.351 1068.56 229.859C1070.35 231.405 1071.96 232.159 1073.33 232.159C1074.56 232.159 1075.55 231.453 1076.39 230.042C1077.2 228.583 1077.62 226.09 1077.62 222.524C1077.62 220.871 1077.58 219.46 1077.48 218.378C1077.39 217.247 1077.2 216.261 1076.97 215.421C1076.68 214.522 1076.31 213.768 1075.93 213.111C1075.5 212.502 1074.75 211.603 1073.61 210.482C1072.53 209.4 1070.73 208.028 1068.28 206.482C1065.88 204.877 1063.04 203.515 1059.93 202.297C1056.77 201.118 1053.37 200.132 1049.6 199.427C1045.87 198.673 1042.05 198.296 1038.08 198.296C1029.87 198.296 1022.23 199.659 1015.15 202.345C1008.13 205.071 1001.99 209.207 996.755 214.802C991.559 220.407 987.458 227.597 984.433 236.353C981.467 245.147 979.955 255.632 979.955 267.818C979.955 278.584 981.176 288.045 983.638 296.269C986.091 304.454 989.63 311.422 994.302 317.066C998.926 322.709 1004.72 326.991 1011.66 329.899C1018.55 332.866 1026.48 334.325 1035.44 334.325C1039.78 334.325 1043.99 333.9 1048.04 333.05C1052.1 332.257 1055.82 331.175 1059.32 329.812C1062.76 328.488 1065.88 326.942 1068.66 325.241C1071.4 323.502 1073.38 322.091 1074.51 320.922C1075.69 319.791 1076.39 318.892 1076.72 318.283C1077.06 317.675 1077.34 317.017 1077.58 316.215C1077.81 315.413 1077.95 314.476 1078.05 313.297Z" fill="#0D3B6F"/>
<path fill-rule="evenodd" clip-rule="evenodd" d="M954.943 264.127C954.943 274.235 953.625 283.551 950.93 292.065C948.293 300.531 944.279 307.866 938.996 314.031C933.713 320.197 927.062 324.99 919.132 328.421C911.154 331.861 901.905 333.601 891.436 333.601C881.198 333.601 872.28 332.093 864.679 329.039C857.089 326.024 850.758 321.608 845.717 315.819C840.666 310.03 836.886 302.976 834.384 294.752C831.883 286.47 830.662 277.105 830.662 266.62C830.662 256.511 831.98 247.195 834.578 238.73C837.215 230.216 841.18 222.881 846.464 216.715C851.757 210.55 858.359 205.805 866.289 202.365C874.209 198.982 883.457 197.291 894.034 197.291C904.271 197.291 913.19 198.799 920.78 201.852C928.381 204.858 934.701 209.284 939.752 215.073C944.803 220.852 948.622 227.858 951.172 236.14C953.673 244.422 954.943 253.728 954.943 264.127ZM929.273 246.538C930.552 252.511 931.163 258.86 931.163 265.586C931.163 272.737 930.407 279.318 928.943 285.291C927.479 291.263 925.172 296.443 922.011 300.772C918.851 305.092 914.838 308.436 909.932 310.832C905.027 313.229 899.269 314.408 892.618 314.408C885.299 314.408 879.163 313.094 874.257 310.455C869.4 307.866 865.484 304.3 862.556 299.873C859.629 295.409 857.554 290.181 856.332 284.208C855.053 278.236 854.442 271.838 854.442 265.016C854.442 257.961 855.198 251.428 856.749 245.456C858.262 239.484 860.579 234.304 863.739 229.936C866.899 225.558 870.864 222.176 875.721 219.769C880.578 217.373 886.385 216.194 893.132 216.194C900.442 216.194 906.578 217.518 911.445 220.146C916.35 222.736 920.266 226.312 923.097 230.825C925.976 235.338 928.051 240.566 929.273 246.538Z" fill="#0D3B6F"/>
<path d="M796.819 331.35C797.197 330.838 797.391 330.229 797.391 329.475V145.416C797.391 144.672 797.197 144.005 796.819 143.493C796.441 142.933 795.879 142.459 795.026 142.082C794.182 141.754 793.048 141.474 791.536 141.28C790.072 141.097 788.191 141 785.874 141C783.606 141 781.774 141.097 780.31 141.28C778.797 141.474 777.615 141.754 776.771 142.082C775.87 142.459 775.259 142.933 774.929 143.493C774.6 144.005 774.454 144.672 774.454 145.416V329.475C774.454 330.229 774.6 330.838 774.929 331.35C775.259 331.824 775.87 332.297 776.771 332.674C777.615 333.003 778.797 333.283 780.31 333.467C781.774 333.66 783.606 333.756 785.874 333.756C788.191 333.756 790.072 333.66 791.536 333.467C793.048 333.283 794.182 333.003 795.026 332.674C795.879 332.297 796.441 331.824 796.819 331.35Z" fill="#0D3B6F"/>
<path fill-rule="evenodd" clip-rule="evenodd" d="M738.934 298.785C740.35 294.079 741.057 288.908 741.057 283.303C741.057 277.244 740.107 271.687 738.275 266.614C736.433 261.579 733.932 257.153 730.772 253.394C727.563 249.625 723.831 246.523 719.633 244.078C715.387 241.633 710.811 239.99 705.906 239.043C709.774 237.4 713.215 235.283 716.24 232.693C719.255 230.152 721.708 227.243 723.695 223.948C725.673 220.701 727.185 217.125 728.222 213.269C729.211 209.413 729.735 205.364 729.735 201.131C729.735 194.076 728.6 187.727 726.283 182.132C723.976 176.536 720.525 171.782 715.949 167.926C711.373 164.07 705.664 161.103 698.868 159.083C692.033 157.064 683.25 156.078 672.548 156.078H631.87C629.747 156.078 627.721 156.783 625.831 158.194C623.94 159.654 623 162.147 623 165.713V324.791C623 328.366 623.94 330.86 625.831 332.319C627.721 333.73 629.747 334.435 631.87 334.435H678.626C685.373 334.435 691.326 333.962 696.561 332.976C701.747 332.039 706.662 330.579 711.238 328.646C715.813 326.723 719.914 324.327 723.55 321.505C727.185 318.635 730.297 315.339 732.895 311.58C735.483 307.763 737.471 303.53 738.934 298.785ZM705.382 203.441C705.382 199.111 704.772 195.207 703.589 191.68C702.406 188.201 700.526 185.234 697.927 182.789C695.329 180.344 691.985 178.508 687.836 177.194C683.677 175.928 678.209 175.27 671.365 175.27H646.78V233.119H673.866C680.041 233.119 685.005 232.317 688.824 230.722C692.596 229.079 695.707 226.914 698.209 224.228C700.661 221.503 702.503 218.304 703.637 214.68C704.82 211.056 705.382 207.297 705.382 203.441ZM713.593 270.653C715.29 274.703 716.143 279.399 716.143 284.714C716.143 289.701 715.241 294.079 713.497 297.838C711.752 301.607 709.347 304.757 706.284 307.299C703.162 309.831 699.624 311.764 695.572 313.03C691.51 314.305 686.75 314.962 681.321 314.962H646.78V252.031H675.233C682.688 252.031 688.912 252.736 693.827 254.147C698.781 255.607 702.833 257.675 706.139 260.448C709.396 263.222 711.897 266.614 713.593 270.653Z" fill="#0D3B6F"/>
</g>
<defs>
<clipPath id="clip0_1364_171">
<rect width="1813.5" height="504" fill="white"/>
</clipPath>
</defs>
</svg>
