<svg width="60" height="70" viewBox="0 0 60 70" fill="none" xmlns="http://www.w3.org/2000/svg">
<g id="Apple Dark Grey 1" clip-path="url(#clip0_505_12748)">
<path id="Vector" d="M58.2406 54.3652C57.1856 56.7875 55.9368 59.0173 54.4899 61.0672C52.5177 63.8619 50.9029 65.7963 49.6584 66.8705C47.7292 68.6338 45.6622 69.5368 43.4489 69.5881C41.8599 69.5881 39.9436 69.1388 37.713 68.2272C35.4751 67.3199 33.4185 66.8705 31.5379 66.8705C29.5657 66.8705 27.4505 67.3199 25.188 68.2272C22.9221 69.1388 21.0967 69.6138 19.7011 69.6609C17.5786 69.7508 15.463 68.8221 13.3512 66.8705C12.0034 65.7022 10.3175 63.6992 8.29789 60.8618C6.13102 57.8318 4.34955 54.3181 2.95391 50.3123C1.45924 45.9855 0.709961 41.7957 0.709961 37.7394C0.709961 33.0929 1.72019 29.0854 3.74367 25.7271C5.33394 23.0296 7.44957 20.9018 10.0974 19.3397C12.7453 17.7776 15.6064 16.9816 18.6874 16.9306C20.3733 16.9306 22.5841 17.4489 25.3314 18.4675C28.071 19.4895 29.8301 20.0077 30.6014 20.0077C31.178 20.0077 33.1321 19.4017 36.4448 18.1936C39.5776 17.0731 42.2216 16.6092 44.3876 16.792C50.2569 17.2627 54.6665 19.5622 57.599 23.705C52.3497 26.866 49.7531 31.2933 49.8048 36.9729C49.8522 41.3969 51.467 45.0782 54.6406 48.0013C56.0789 49.358 57.6851 50.4065 59.4722 51.1512C59.0846 52.2682 58.6755 53.3381 58.2406 54.3652ZM44.7795 1.72056C44.7795 5.18802 43.5048 8.42557 40.9642 11.4222C37.8982 14.9846 34.1897 17.0432 30.1682 16.7184C30.1169 16.3024 30.0872 15.8646 30.0872 15.4045C30.0872 12.0757 31.5453 8.5133 34.1346 5.60054C35.4273 4.12575 37.0714 2.89949 39.0652 1.92127C41.0546 0.957655 42.9364 0.424753 44.7063 0.333496C44.7579 0.797041 44.7795 1.26066 44.7795 1.72056Z" fill="white"/>
</g>
<defs>
<clipPath id="clip0_505_12748">
<rect width="58.7622" height="69.3333" fill="white" transform="translate(0.709961 0.333496)"/>
</clipPath>
</defs>
</svg>
