<svg width="1918" height="1151" viewBox="0 0 1918 1151" fill="none" xmlns="http://www.w3.org/2000/svg">
<path fill-rule="evenodd" clip-rule="evenodd" d="M1526.07 933.895C1526.07 933.896 1526.06 933.95 1526.01 934.059C1526.05 933.949 1526.07 933.895 1526.07 933.895ZM1350.92 923.857C1347.54 917.75 1345.51 913 1337.39 904.857C1327.29 894.732 1288.66 864.106 1227.75 847.857C1166.84 831.609 1126.37 813.929 955.011 813.929C783.111 820.036 780.404 830.214 673.474 856.679C619.896 873.887 605.797 889.25 588.201 904.857C578.846 911.961 573.989 927.25 572.635 935.249C571.474 942.114 572.635 945.571 572.635 948.286C573.989 959.143 579.546 982.5 637.605 1009.63C738.93 1056.97 789.202 1061.61 957.719 1071.11C1099.16 1071.11 1194.59 1045.32 1297.46 1004.61C1332.65 984.25 1335.36 979.5 1352.28 954.393C1353.63 941.5 1352.95 930.643 1350.92 923.857ZM393.611 935.471C393.551 935.324 393.53 935.249 393.535 935.249C393.539 935.249 393.569 935.322 393.611 935.471ZM393.574 942.296C393.507 942.528 393.456 942.643 393.447 942.642C393.438 942.642 393.472 942.526 393.574 942.296ZM1420.63 925.893C1420.73 926.107 1526.2 942.75 1526.2 942.75C1526.19 942.751 1420.7 926.109 1420.63 925.893ZM955.011 1150.5C1309.72 1150.5 1606.74 1052.04 1606.74 938.107C1606.74 824.179 1309.72 732.5 955.011 732.5C600.303 732.5 312.755 824.857 312.755 938.786C312.755 1052.71 600.303 1150.5 955.011 1150.5Z" fill="#44B68E" fill-opacity="0.6"/>
<path fill-rule="evenodd" clip-rule="evenodd" d="M1377.32 837.897C1377.32 837.897 1377.31 837.937 1377.28 838.017C1377.3 837.936 1377.32 837.896 1377.32 837.897ZM1248.02 830.5C1245.53 826 1244.03 822.5 1238.03 816.5C1230.58 809.04 1202.06 786.472 1157.09 774.5C1112.13 762.528 1082.26 749.5 955.752 749.5C828.851 754 826.853 761.5 747.915 781C708.362 793.68 697.954 805 684.964 816.5C678.058 821.734 674.472 833 673.473 838.894C672.615 843.952 673.473 846.5 673.473 848.5C674.472 856.5 684.964 879.317 721.435 893.698C798.22 923.975 833.348 932 957.751 939C1062.17 939 1132.61 920 1208.55 890C1234.53 875 1236.53 871.5 1249.02 853C1250.02 843.5 1249.52 835.5 1248.02 830.5ZM541.313 839.057C541.269 838.949 541.253 838.894 541.256 838.894C541.26 838.894 541.282 838.948 541.313 839.057ZM541.285 844.087C541.236 844.258 541.198 844.342 541.192 844.342C541.185 844.341 541.21 844.256 541.285 844.087ZM1299.48 832C1299.56 832.158 1377.42 844.421 1377.41 844.421C1377.41 844.422 1299.54 832.159 1299.48 832ZM955.752 997.5C1217.61 997.5 1436.88 924.947 1436.88 841C1436.88 757.053 1217.61 689.5 955.752 689.5C693.898 689.5 481.623 757.553 481.623 841.5C481.623 925.447 693.898 997.5 955.752 997.5Z" fill="#44B68E"/>
<path d="M1134.11 915.5C1029.69 947 891.303 942 801.873 921C720.436 297.5 238.313 38.3333 0.998535 4.5H1916C1298.08 181.3 1164.09 660 1134.11 915.5Z" fill="url(#paint0_linear_33_17973)" fill-opacity="0.8"/>
<path d="M1097.14 925C1002.72 944.5 941.263 942 842.84 929C791.237 318.395 193.554 27.4033 1.49805 0H1918C1417.93 143.199 1132.88 484.04 1097.14 925Z" fill="url(#paint1_linear_33_17973)" fill-opacity="0.8"/>
<path d="M761.729 685C761.729 690.891 766.504 695.667 772.396 695.667C778.287 695.667 783.062 690.891 783.062 685C783.062 679.109 778.287 674.333 772.396 674.333C766.504 674.333 761.729 679.109 761.729 685ZM815.862 685L815.983 683.004L815.922 683H815.862V685ZM832.848 703L830.849 703.059L832.848 703ZM772.396 687H776.018V683H772.396V687ZM783.262 687H790.506V683H783.262V687ZM797.751 687H804.995V683H797.751V687ZM812.239 687H815.862V683H812.239V687ZM815.74 686.996C816.575 687.047 817.594 687.201 818.709 687.495L819.729 683.627C818.375 683.27 817.095 683.071 815.983 683.004L815.74 686.996ZM824.258 690.027C825.821 691.11 827.267 692.519 828.403 694.328L831.79 692.201C830.333 689.88 828.488 688.091 826.535 686.739L824.258 690.027ZM830.534 699.962C830.707 700.919 830.817 701.949 830.849 703.059L834.847 702.941C834.809 701.641 834.68 700.411 834.47 699.249L830.534 699.962ZM830.849 703.059C830.886 704.318 830.918 705.565 830.944 706.793L834.943 706.706C834.917 705.468 834.885 704.211 834.847 702.941L830.849 703.059ZM831.053 714.267C831.073 716.941 831.073 719.454 831.059 721.741L835.059 721.766C835.073 719.461 835.073 716.93 835.053 714.236L831.053 714.267ZM830.957 729.21C830.923 730.76 830.885 732.017 830.85 732.923L834.847 733.077C834.883 732.143 834.921 730.864 834.956 729.299L830.957 729.21Z" fill="url(#paint2_linear_33_17973)"/>
<path d="M1177.47 679C1177.47 684.891 1172.7 689.667 1166.81 689.667C1160.92 689.667 1156.14 684.891 1156.14 679C1156.14 673.109 1160.92 668.333 1166.81 668.333C1172.7 668.333 1177.47 673.109 1177.47 679ZM1123.34 679L1123.22 677.004L1123.28 677H1123.34V679ZM1106.36 697L1108.35 697.059L1106.36 697ZM1166.81 681H1163.19V677H1166.81V681ZM1155.94 681H1148.7V677H1155.94V681ZM1141.45 681H1134.21V677H1141.45V681ZM1126.96 681H1123.34V677H1126.96V681ZM1123.46 680.996C1122.63 681.047 1121.61 681.201 1120.49 681.495L1119.47 677.627C1120.83 677.27 1122.11 677.071 1123.22 677.004L1123.46 680.996ZM1114.95 684.027C1113.38 685.11 1111.94 686.519 1110.8 688.328L1107.41 686.201C1108.87 683.88 1110.72 682.091 1112.67 680.739L1114.95 684.027ZM1108.67 693.962C1108.5 694.919 1108.39 695.949 1108.35 697.059L1104.36 696.941C1104.39 695.641 1104.52 694.411 1104.73 693.249L1108.67 693.962ZM1108.35 697.059C1108.32 698.318 1108.29 699.565 1108.26 700.793L1104.26 700.706C1104.29 699.468 1104.32 698.211 1104.36 696.941L1108.35 697.059ZM1108.15 708.267C1108.13 710.941 1108.13 713.454 1108.14 715.741L1104.14 715.766C1104.13 713.461 1104.13 710.93 1104.15 708.236L1108.15 708.267ZM1108.25 723.21C1108.28 724.76 1108.32 726.017 1108.35 726.923L1104.36 727.077C1104.32 726.143 1104.28 724.864 1104.25 723.299L1108.25 723.21Z" fill="url(#paint3_linear_33_17973)"/>
<path d="M805.695 435C805.695 440.891 810.47 445.667 816.361 445.667C822.252 445.667 827.028 440.891 827.028 435C827.028 429.109 822.252 424.333 816.361 424.333C810.47 424.333 805.695 429.109 805.695 435ZM859.827 435L859.948 433.004L859.888 433H859.827V435ZM876.814 453L878.813 452.941L876.814 453ZM816.361 437H819.983V433H816.361V437ZM827.228 437H834.472V433H827.228V437ZM841.717 437H848.961V433H841.717V437ZM856.205 437H859.827V433H856.205V437ZM859.706 436.996C860.541 437.047 861.56 437.201 862.675 437.495L863.695 433.627C862.341 433.27 861.061 433.071 859.948 433.004L859.706 436.996ZM868.223 440.027C869.787 441.11 871.233 442.519 872.368 444.328L875.756 442.201C874.299 439.88 872.453 438.091 870.5 436.739L868.223 440.027ZM874.499 449.962C874.673 450.919 874.782 451.949 874.815 453.059L878.813 452.941C878.775 451.641 878.646 450.411 878.435 449.249L874.499 449.962ZM874.815 453.059C874.835 453.729 874.858 455.011 874.885 456.857L878.884 456.799C878.858 454.957 878.834 453.645 878.813 452.941L874.815 453.059ZM874.983 464.825C875.01 467.19 875.038 469.86 875.067 472.801L879.067 472.761C879.037 469.819 879.009 467.148 878.983 464.781L874.983 464.825ZM875.144 480.782C875.167 483.301 875.192 485.958 875.217 488.737L879.216 488.701C879.191 485.921 879.167 483.265 879.144 480.744L875.144 480.782ZM875.286 496.686C875.309 499.261 875.331 501.919 875.354 504.65L879.354 504.616C879.331 501.885 879.309 499.227 879.286 496.652L875.286 496.686ZM875.421 512.636C875.442 515.249 875.464 517.917 875.486 520.633L879.486 520.601C879.464 517.884 879.442 515.216 879.421 512.603L875.421 512.636ZM875.549 528.547C875.57 531.165 875.591 533.819 875.612 536.506L879.612 536.474C879.591 533.788 879.57 531.133 879.549 528.515L875.549 528.547ZM875.674 544.494C875.694 547.119 875.715 549.768 875.735 552.437L879.735 552.407C879.715 549.738 879.694 547.088 879.674 544.463L875.674 544.494ZM875.795 560.394C875.815 563.039 875.835 565.699 875.855 568.369L879.855 568.339C879.835 565.669 879.815 563.009 879.795 560.364L875.795 560.394ZM875.914 576.32C875.933 578.97 875.952 581.625 875.972 584.283L879.972 584.254C879.952 581.596 879.933 578.94 879.913 576.29L875.914 576.32ZM876.029 592.242C876.048 594.9 876.067 597.556 876.086 600.205L880.086 600.177C880.067 597.527 880.048 594.871 880.029 592.213L876.029 592.242ZM876.143 608.17C876.161 610.828 876.18 613.476 876.198 616.109L880.198 616.081C880.18 613.448 880.161 610.8 880.142 608.142L876.143 608.17ZM876.253 624.092C876.272 626.769 876.29 629.426 876.308 632.058L880.308 632.031C880.29 629.399 880.272 626.742 880.253 624.065L876.253 624.092ZM876.361 639.982C876.379 642.68 876.397 645.345 876.415 647.973L880.414 647.947C880.397 645.319 880.379 642.653 880.361 639.955L876.361 639.982ZM876.467 655.951C876.484 658.65 876.502 661.299 876.518 663.894L880.518 663.869C880.501 661.274 880.484 658.624 880.467 655.925L876.467 655.951ZM876.568 671.799C876.585 674.545 876.602 677.216 876.617 679.803L880.617 679.779C880.602 677.192 880.585 674.52 880.568 671.774L876.568 671.799ZM876.665 687.789C876.682 690.576 876.697 693.237 876.711 695.759L880.711 695.736C880.697 693.214 880.682 690.553 880.665 687.765L876.665 687.789ZM876.754 703.703C876.769 706.627 876.782 709.275 876.793 711.615L880.793 711.597C880.782 709.256 880.769 706.607 880.754 703.682L876.754 703.703ZM876.821 719.582C876.826 721.899 876.823 723.192 876.814 723.423L880.811 723.577C880.824 723.24 880.826 721.826 880.821 719.574L876.821 719.582Z" fill="url(#paint4_linear_33_17973)"/>
<path d="M948.083 301.5C948.083 307.391 952.859 312.167 958.75 312.167C964.641 312.167 969.416 307.391 969.416 301.5C969.416 295.609 964.641 290.833 958.75 290.833C952.859 290.833 948.083 295.609 948.083 301.5ZM956.751 401.5L954.752 401.46L954.751 401.48L954.751 401.5L956.751 401.5ZM960.748 718.577C960.761 718.24 960.763 716.826 960.759 714.574L956.759 714.582C956.763 716.899 956.76 718.192 956.751 718.423L960.748 718.577ZM960.73 706.597C960.72 704.256 960.707 701.607 960.691 698.682L956.691 698.703C956.707 701.627 956.72 704.275 956.73 706.614L960.73 706.597ZM960.648 690.736C960.634 688.214 960.619 685.553 960.603 682.765L956.603 682.789C956.619 685.576 956.634 688.237 956.648 690.759L960.648 690.736ZM960.555 674.778C960.539 672.191 960.522 669.52 960.505 666.774L956.505 666.799C956.523 669.545 956.539 672.216 956.555 674.803L960.555 674.778ZM960.455 658.869C960.439 656.274 960.422 653.624 960.404 650.925L956.404 650.951C956.422 653.65 956.439 656.299 956.455 658.894L960.455 658.869ZM960.352 642.947C960.334 640.319 960.317 637.653 960.299 634.955L956.299 634.982C956.317 637.68 956.334 640.345 956.352 642.973L960.352 642.947ZM960.245 627.03C960.227 624.399 960.209 621.742 960.191 619.065L956.191 619.092C956.209 621.769 956.227 624.426 956.245 627.058L960.245 627.03ZM960.135 611.081C960.117 608.448 960.098 605.8 960.08 603.142L956.08 603.17C956.099 605.828 956.117 608.476 956.135 611.108L960.135 611.081ZM960.023 595.176C960.005 592.527 959.986 589.871 959.966 587.213L955.967 587.242C955.986 589.9 956.005 592.556 956.024 595.205L960.023 595.176ZM959.909 579.254C959.89 576.596 959.87 573.94 959.851 571.29L955.851 571.32C955.87 573.97 955.89 576.625 955.909 579.283L959.909 579.254ZM959.792 563.339C959.772 560.669 959.752 558.009 959.732 555.364L955.732 555.394C955.752 558.039 955.772 560.699 955.792 563.369L959.792 563.339ZM959.672 547.407C959.652 544.738 959.632 542.088 959.611 539.463L955.611 539.494C955.632 542.119 955.652 544.768 955.672 547.437L959.672 547.407ZM959.549 531.474C959.528 528.788 959.507 526.133 959.487 523.515L955.487 523.547C955.507 526.164 955.528 528.819 955.549 531.506L959.549 531.474ZM959.423 515.601C959.401 512.884 959.38 510.216 959.358 507.603L955.358 507.636C955.38 510.249 955.401 512.917 955.423 515.633L959.423 515.601ZM959.292 499.616C959.269 496.885 959.246 494.227 959.224 491.652L955.224 491.686C955.246 494.261 955.269 496.918 955.292 499.649L959.292 499.616ZM959.154 483.701C959.129 480.921 959.104 478.265 959.081 475.744L955.081 475.782C955.105 478.301 955.129 480.957 955.154 483.737L959.154 483.701ZM959.004 467.761C958.975 464.818 958.947 462.148 958.92 459.781L954.921 459.825C954.947 462.19 954.975 464.859 955.004 467.8L959.004 467.761ZM958.822 451.799C958.795 449.957 958.771 448.645 958.75 447.941L954.752 448.059C954.772 448.729 954.795 450.011 954.822 451.857L958.822 451.799ZM958.75 447.941C958.715 446.736 958.686 445.448 958.662 444.094L954.663 444.164C954.687 445.531 954.716 446.835 954.752 448.059L958.75 447.941ZM958.583 436.368C958.572 433.851 958.571 431.245 958.578 428.631L954.578 428.621C954.571 431.242 954.572 433.857 954.583 436.386L958.583 436.368ZM958.615 420.886C958.632 418.192 958.654 415.578 958.674 413.138L954.674 413.104C954.654 415.545 954.633 418.162 954.615 420.86L958.615 420.886ZM958.736 405.384C958.746 403.904 958.751 402.594 958.751 401.5L954.751 401.5C954.751 402.581 954.746 403.882 954.736 405.358L958.736 405.384ZM958.751 401.54L958.834 397.373L954.835 397.293L954.752 401.46L958.751 401.54ZM959.001 389.04L959.167 380.707L955.168 380.627L955.002 388.96L959.001 389.04ZM959.334 372.373L959.5 364.04L955.501 363.96L955.335 372.293L959.334 372.373ZM959.667 355.707L959.833 347.373L955.834 347.293L955.668 355.627L959.667 355.707ZM960 339.04L960.167 330.707L956.167 330.627L956.001 338.96L960 339.04ZM960.333 322.373L960.5 314.04L956.5 313.96L956.334 322.293L960.333 322.373ZM960.666 305.707L960.749 301.54L956.75 301.46L956.667 305.627L960.666 305.707Z" fill="url(#paint5_linear_33_17973)"/>
<path d="M1110.32 435C1110.32 440.891 1105.54 445.667 1099.65 445.667C1093.76 445.667 1088.98 440.891 1088.98 435C1088.98 429.109 1093.76 424.333 1099.65 424.333C1105.54 424.333 1110.32 429.109 1110.32 435ZM1056.18 435L1056.06 433.004L1056.12 433H1056.18V435ZM1039.2 453L1037.2 452.941L1039.2 453ZM1099.65 437H1096.03V433H1099.65V437ZM1088.78 437H1081.54V433H1088.78V437ZM1074.3 437H1067.05V433H1074.3V437ZM1059.81 437H1056.18V433H1059.81V437ZM1056.31 436.996C1055.47 437.047 1054.45 437.201 1053.34 437.495L1052.32 433.627C1053.67 433.27 1054.95 433.071 1056.06 433.004L1056.31 436.996ZM1047.79 440.027C1046.23 441.11 1044.78 442.519 1043.64 444.328L1040.26 442.201C1041.71 439.88 1043.56 438.091 1045.51 436.739L1047.79 440.027ZM1041.51 449.962C1041.34 450.919 1041.23 451.949 1041.2 453.059L1037.2 452.941C1037.24 451.641 1037.37 450.411 1037.58 449.249L1041.51 449.962ZM1041.2 453.059C1041.18 453.729 1041.15 455.011 1041.13 456.857L1037.13 456.799C1037.15 454.957 1037.18 453.645 1037.2 452.941L1041.2 453.059ZM1041.03 464.825C1041 467.19 1040.97 469.86 1040.95 472.801L1036.95 472.761C1036.97 469.819 1037 467.148 1037.03 464.781L1041.03 464.825ZM1040.87 480.782C1040.84 483.301 1040.82 485.958 1040.8 488.737L1036.8 488.701C1036.82 485.921 1036.85 483.265 1036.87 480.744L1040.87 480.782ZM1040.73 496.686C1040.7 499.261 1040.68 501.919 1040.66 504.65L1036.66 504.616C1036.68 501.885 1036.7 499.227 1036.73 496.652L1040.73 496.686ZM1040.59 512.636C1040.57 515.249 1040.55 517.917 1040.53 520.633L1036.53 520.601C1036.55 517.884 1036.57 515.216 1036.59 512.603L1040.59 512.636ZM1040.46 528.547C1040.44 531.165 1040.42 533.819 1040.4 536.506L1036.4 536.474C1036.42 533.788 1036.44 531.133 1036.46 528.515L1040.46 528.547ZM1040.34 544.494C1040.32 547.119 1040.3 549.768 1040.28 552.437L1036.28 552.407C1036.3 549.738 1036.32 547.088 1036.34 544.463L1040.34 544.494ZM1040.22 560.394C1040.2 563.039 1040.18 565.699 1040.16 568.369L1036.16 568.339C1036.18 565.669 1036.2 563.009 1036.22 560.364L1040.22 560.394ZM1040.1 576.32C1040.08 578.97 1040.06 581.625 1040.04 584.283L1036.04 584.254C1036.06 581.596 1036.08 578.94 1036.1 576.29L1040.1 576.32ZM1039.98 592.242C1039.96 594.9 1039.94 597.556 1039.93 600.205L1035.93 600.177C1035.94 597.527 1035.96 594.871 1035.98 592.213L1039.98 592.242ZM1039.87 608.17C1039.85 610.828 1039.83 613.476 1039.81 616.109L1035.81 616.081C1035.83 613.448 1035.85 610.8 1035.87 608.142L1039.87 608.17ZM1039.76 624.092C1039.74 626.769 1039.72 629.426 1039.7 632.058L1035.7 632.031C1035.72 629.399 1035.74 626.742 1035.76 624.065L1039.76 624.092ZM1039.65 639.982C1039.63 642.68 1039.62 645.345 1039.6 647.973L1035.6 647.947C1035.62 645.319 1035.63 642.653 1035.65 639.955L1039.65 639.982ZM1039.55 655.951C1039.53 658.65 1039.51 661.299 1039.49 663.894L1035.49 663.869C1035.51 661.274 1035.53 658.624 1035.55 655.925L1039.55 655.951ZM1039.44 671.799C1039.43 674.545 1039.41 677.216 1039.39 679.803L1035.39 679.779C1035.41 677.192 1035.43 674.52 1035.44 671.774L1039.44 671.799ZM1039.35 687.789C1039.33 690.576 1039.32 693.237 1039.3 695.759L1035.3 695.736C1035.32 693.214 1035.33 690.553 1035.35 687.765L1039.35 687.789ZM1039.26 703.703C1039.24 706.627 1039.23 709.275 1039.22 711.615L1035.22 711.597C1035.23 709.256 1035.24 706.607 1035.26 703.682L1039.26 703.703ZM1039.19 719.582C1039.19 721.899 1039.19 723.192 1039.2 723.423L1035.2 723.577C1035.19 723.24 1035.19 721.826 1035.19 719.574L1039.19 719.582Z" fill="url(#paint6_linear_33_17973)"/>
<defs>
<linearGradient id="paint0_linear_33_17973" x1="999.718" y1="213" x2="958.436" y2="937.887" gradientUnits="userSpaceOnUse">
<stop stop-color="#00583A" stop-opacity="0"/>
<stop offset="1" stop-color="#31E3A7"/>
</linearGradient>
<linearGradient id="paint1_linear_33_17973" x1="956.252" y1="19.5" x2="960.756" y2="937.5" gradientUnits="userSpaceOnUse">
<stop stop-color="#00583A" stop-opacity="0"/>
<stop offset="1" stop-color="#7FF4CC"/>
</linearGradient>
<linearGradient id="paint2_linear_33_17973" x1="802.732" y1="685" x2="802.732" y2="733" gradientUnits="userSpaceOnUse">
<stop stop-color="white"/>
<stop offset="0.0001" stop-color="white" stop-opacity="0.996406"/>
<stop offset="1" stop-color="#44B68E"/>
</linearGradient>
<linearGradient id="paint3_linear_33_17973" x1="1136.47" y1="679" x2="1136.47" y2="727" gradientUnits="userSpaceOnUse">
<stop stop-color="white"/>
<stop offset="0.0001" stop-color="white" stop-opacity="0.996406"/>
<stop offset="1" stop-color="#44B68E"/>
</linearGradient>
<linearGradient id="paint4_linear_33_17973" x1="879.312" y1="587.5" x2="875.309" y2="731" gradientUnits="userSpaceOnUse">
<stop stop-color="white"/>
<stop offset="0.862547" stop-color="#51C89F"/>
</linearGradient>
<linearGradient id="paint5_linear_33_17973" x1="959.249" y1="582.5" x2="955.246" y2="726" gradientUnits="userSpaceOnUse">
<stop stop-color="white"/>
<stop offset="0.862547" stop-color="#51C9A0"/>
</linearGradient>
<linearGradient id="paint6_linear_33_17973" x1="1036.7" y1="587.5" x2="1040.7" y2="731" gradientUnits="userSpaceOnUse">
<stop stop-color="white"/>
<stop offset="0.862547" stop-color="#51C89F"/>
</linearGradient>
</defs>
</svg>
