<svg width="55" height="61" viewBox="0 0 55 61" fill="none" xmlns="http://www.w3.org/2000/svg">
<g id="Vector">
<path d="M0.0522461 55.0923V5.15112C0.0522461 -1.00598 4.59562 0.613954 6.8673 2.12305C20.0431 9.3667 47.485 24.4878 51.8467 27.0231C56.2083 29.5584 53.664 32.6068 51.8467 33.814C38.5195 41.3595 8.4903 58.2612 5.95863 59.6195C3.42696 60.9779 0.0522461 61.8834 0.0522461 55.0923Z" fill="#00CCFF"/>
<path d="M0.506583 2.54669L30.4928 30.7776L40.4882 20.6557C29.7356 14.7702 8.99762 3.25195 6.41297 1.64256C2.77827 -0.620667 0.506583 1.64125 0.506583 2.54669Z" fill="#00EF77"/>
<path d="M30.4928 30.779L40.4882 20.6571C42.6085 21.8644 48.7572 24.9128 52.7554 27.4481C56.7535 29.9834 53.9669 32.8917 52.301 33.9481L40.0339 40.739L30.4928 30.779Z" fill="#FFC702"/>
<path d="M0.96092 59.5918L30.4928 30.779L40.0339 40.739C29.2813 46.7754 7.23077 59.1198 5.04995 60.2063C2.86914 61.2929 1.41526 60.1954 0.96092 59.5918Z" fill="#FF3749"/>
</g>
</svg>
